<svg width="189" height="47" viewBox="0 0 189 47" fill="none" xmlns="http://www.w3.org/2000/svg">
<g clip-path="url(#clip0_62_643)">
<path d="M27.1068 27.3755C26.6189 26.5037 25.9435 25.7528 25.13 25.1777C24.2266 24.5086 23.2294 23.9783 22.1712 23.6041C21.0601 23.2014 19.9137 22.9053 18.7473 22.7197C15.2518 22.2022 11.885 21.0241 8.82444 19.2474C8.47961 19.0173 8.19221 18.7102 7.98462 18.35C7.71773 17.9677 7.56529 17.5164 7.54533 17.0495C7.55162 15.4614 7.81343 13.8847 8.32057 12.3808C8.72026 11.0338 9.3934 9.78495 10.2974 8.71335C12.2698 6.83553 14.6839 5.49302 17.3132 4.81186C21.004 3.6723 24.8488 3.11947 28.709 3.17326C30.702 3.14519 32.6905 3.37242 34.6265 3.8495C35.9961 4.23965 36.6809 4.8379 36.6809 5.65721C36.7357 6.70734 36.5546 7.75638 36.1511 8.72637C35.91 9.31041 35.5062 9.81174 34.9883 10.1699C34.2857 10.5366 33.5607 10.858 32.8177 11.1323C31.8309 11.4737 30.8682 11.8821 29.9364 12.3548C29.2211 12.7185 28.5267 13.1223 27.8562 13.5642C27.5335 13.8252 27.1656 14.0236 26.7709 14.1495C26.603 14.1495 26.5125 14.0844 26.5125 13.9414C26.5125 13.7983 26.8226 13.1871 27.4428 12.6409C28.1224 11.9909 28.8983 11.4513 29.7426 11.0413C30.7116 10.5341 31.1897 10.2089 31.1897 10.0659C31.1897 9.92283 30.66 9.71476 29.5876 9.71476C26.5512 9.69347 23.5206 9.98542 20.5433 10.5861C18.2825 11.0048 16.1021 11.7818 14.0831 12.888C12.5068 13.8503 11.7057 14.8127 11.7057 15.8011C11.6971 16.0982 11.7898 16.3893 11.9685 16.6259C12.1472 16.8625 12.401 17.0304 12.6876 17.1016C13.3466 17.3617 14.8066 17.7908 17.0419 18.4021C19.0964 18.9368 21.1088 19.6235 23.0627 20.4568C25.1296 21.2628 27.0437 22.4197 28.7219 23.8772C29.2865 24.3722 29.7415 24.9811 30.0576 25.6644C30.3736 26.3477 30.5437 27.0901 30.5566 27.8437C30.5507 28.8964 30.3031 29.9334 29.8331 30.8739C29.3172 31.9376 28.597 32.8879 27.7141 33.6699C26.7649 34.5368 25.6829 35.2439 24.5099 35.7637C23.251 36.2745 21.9552 36.6875 20.6337 36.9992C18.9318 37.4151 17.2057 37.7235 15.4656 37.9226C13.7244 38.1294 11.9731 38.2379 10.2198 38.2477C7.72307 38.3209 5.22907 38.0274 2.81645 37.3763C0.95591 36.7868 0.0256348 35.9198 0.0256348 34.7753C0.150621 33.8906 0.473099 33.0458 0.96884 32.3044C1.45339 31.3283 2.23705 30.5349 3.20405 30.0416C3.9011 29.7565 4.63756 29.581 5.3876 29.5213C6.08531 29.5213 6.43416 29.5213 6.43416 29.7814C6.43243 29.8114 6.42469 29.8407 6.41137 29.8675C6.39804 29.8943 6.3794 29.9181 6.35664 29.9375C6.3018 29.9881 6.24108 30.0317 6.17577 30.0675L5.96904 30.1716L5.10335 30.5097C4.92379 30.5703 4.75068 30.6487 4.58654 30.7438C4.52528 30.773 4.47342 30.819 4.43687 30.8765C4.40032 30.934 4.38054 31.0007 4.37981 31.0689C4.37981 31.4461 6.20159 31.6281 9.83223 31.6281C12.4204 31.6522 15.0081 31.5394 17.5845 31.29C19.4106 31.0852 21.2037 30.6482 22.9206 29.9895C24.4498 29.3568 25.8644 28.4735 27.1068 27.3755Z" fill="#111111"/>
<path d="M37.7019 35.1264C37.5583 35.1272 37.4163 35.0975 37.2849 35.0393C37.1536 34.981 37.0359 34.8955 36.9396 34.7883C36.7153 34.52 36.5999 34.1762 36.6166 33.8259C36.7064 33.2292 36.8988 32.6527 37.1851 32.1223C37.5498 31.3239 38.0286 30.5834 38.6063 29.9245C38.8159 29.6461 39.0824 29.4162 39.3877 29.2502C39.693 29.0841 40.0302 28.9859 40.3764 28.9621C41.1387 28.9621 41.5134 29.4043 41.5134 30.2626C41.457 30.9378 41.2494 31.5914 40.9061 32.1743C40.5254 32.9357 40.0186 33.6261 39.4074 34.2161C38.9771 34.7299 38.3659 35.0562 37.7019 35.1264Z" fill="#A900E4"/>
<path d="M54.9764 21.9525C57.2761 19.7607 59.8892 17.9283 62.7286 16.5163C64.5278 15.5369 66.5058 14.9352 68.5428 14.7477C68.7357 14.7512 68.9259 14.7945 69.1014 14.8751C69.277 14.9556 69.4343 15.0716 69.5635 15.2158C69.8824 15.5166 70.1373 15.8794 70.3129 16.2823C70.4671 16.5589 70.5638 16.8642 70.5971 17.1796C70.6061 17.3202 70.5757 17.4605 70.5095 17.5846C70.4433 17.7087 70.3438 17.8117 70.2224 17.8819C69.8121 18.1093 69.379 18.2924 68.9304 18.4281C69.0467 18.7142 69.2017 19.0653 69.3956 19.5075C69.5894 19.9497 69.7444 20.3138 69.8478 20.5869C69.9434 20.818 69.9959 21.0649 70.0028 21.3152C69.7697 22.1982 69.3262 23.0106 68.7108 23.6821C67.8709 24.8395 67.2637 25.6849 66.9277 26.2831C66.5656 26.8907 66.3861 27.5908 66.4109 28.2988C66.4109 29.5993 67.0053 30.2626 68.2069 30.2626C69.4085 30.2626 71.3465 29.1052 73.9565 26.7903V28.4029C69.5204 33.3535 66.3506 35.8331 64.447 35.8418C64.1667 35.8471 63.89 35.7778 63.6449 35.6407C63.3999 35.5037 63.1952 35.3038 63.0516 35.0615C62.7183 34.4498 62.5658 33.7548 62.6123 33.0587C62.7769 30.9693 63.2833 28.9216 64.1111 26.9984C61.527 29.8594 59.6277 31.8926 58.4132 33.0977C57.6321 34.0554 56.5371 34.7011 55.3252 34.9184C54.9505 34.9184 54.4595 34.5802 53.8781 33.904C53.237 33.1209 52.7185 32.2438 52.3406 31.303C51.9046 30.2525 51.6806 29.1252 51.6817 27.9867C51.666 27.2858 51.7442 26.5859 51.9142 25.9059C52.1044 25.2823 52.4162 24.7031 52.8316 24.2023C53.4951 23.4044 54.2117 22.6527 54.9764 21.9525ZM67.5738 19.0393C64.1589 20.4925 60.8956 22.283 57.8318 24.3844C55.8937 25.8409 54.9247 27.3495 54.9247 28.9101C54.9049 29.3903 55.0025 29.8682 55.2089 30.3016C55.277 30.4562 55.3872 30.5883 55.5266 30.6826C55.666 30.777 55.8291 30.8297 55.9971 30.8348C56.3618 30.782 56.7129 30.6584 57.0307 30.4707C58.9269 29.325 60.6282 27.8804 62.0697 26.192C63.5856 24.432 65.4204 22.0478 67.5738 19.0393Z" fill="#111111"/>
<path d="M89.5773 26.7383V28.559C87.7038 30.4187 86.1792 31.8492 84.9906 32.8766C83.9731 33.7833 82.8646 34.5809 81.6829 35.2565C80.7678 35.7929 79.7313 36.0839 78.6724 36.1018C77.6697 36.0902 76.7124 35.6787 76.0108 34.9574C75.1602 34.1084 74.511 33.077 74.1115 31.9403C73.6566 30.6684 73.4292 29.3254 73.4397 27.9737C73.4179 26.856 73.6898 25.7524 74.2278 24.7745C75.0789 23.4336 76.1045 22.2133 77.2771 21.1461C78.7882 19.613 80.4555 18.2443 82.2514 17.0626C83.3141 16.2765 84.56 15.7793 85.8691 15.619C86.1671 15.6129 86.4631 15.6687 86.7388 15.7828C87.0144 15.8969 87.2638 16.0669 87.4713 16.2822C87.6879 16.4999 87.8581 16.7599 87.9714 17.0461C88.0847 17.3324 88.1388 17.6389 88.1302 17.9469C88.035 18.8065 87.7383 19.6311 87.2645 20.3528C86.7278 21.3362 86.0726 22.2491 85.3136 23.0708C84.6029 23.8381 84.0215 24.2153 83.6081 24.2153C83.1946 24.2153 82.9233 23.9812 82.9233 23.487C82.9348 23.3529 82.9348 23.218 82.9233 23.0839C82.93 22.9582 82.93 22.8323 82.9233 22.7067C82.9233 22.4986 82.8587 22.3816 82.7036 22.3556C82.6048 22.3505 82.5061 22.3651 82.4129 22.3985C82.3198 22.432 82.2342 22.4837 82.161 22.5507C80.4383 23.7905 79.2366 24.6575 78.5562 25.1517C77.9757 25.5843 77.4582 26.0964 77.0186 26.6732C76.6585 27.1325 76.4628 27.7007 76.4631 28.2859C76.4433 28.7551 76.5217 29.2233 76.6931 29.6601C76.8644 30.097 77.125 30.4927 77.4579 30.8218C77.8029 31.1496 78.2087 31.4056 78.6521 31.5752C79.0955 31.7448 79.5679 31.8247 80.042 31.8102C81.4543 31.7113 82.8208 31.2647 84.0215 30.5097C85.9659 29.3964 87.8232 28.1356 89.5773 26.7383Z" fill="#111111"/>
<path d="M109.139 26.6862V28.3509C107.614 29.9288 106.296 31.2293 105.185 32.2524C104.28 33.0921 103.303 33.8494 102.265 34.5152C101.642 34.9604 100.909 35.2257 100.146 35.2826C98.7768 35.2826 98.092 34.4762 98.092 32.8506C98.1714 31.258 98.6135 29.7051 99.384 28.3119C100.485 26.1876 101.728 24.1411 103.105 22.1865C101.563 23.0505 100.178 24.1719 99.0093 25.5028C98.4667 26.127 98.0015 26.6602 97.6398 27.1024C96.5028 28.4029 95.4045 29.7034 94.3451 31.0689C93.2856 32.4344 92.5879 33.2928 92.2261 33.6699C92.0998 33.8387 91.9408 33.9799 91.7587 34.085C91.5766 34.19 91.3752 34.2568 91.1666 34.2811C89.7971 34.2811 89.1123 32.5905 89.1123 29.1962C89.13 27.9533 89.2992 26.7172 89.6162 25.5158C90.2275 23.6111 91.1345 21.8159 92.3037 20.1968C95.3701 15.5843 97.9929 11.8042 100.172 8.85642C101.853 6.53024 103.665 4.30275 105.599 2.18486C107.046 0.676285 108.002 -0.0520098 108.493 -0.0259998C109.007 0.00721207 109.511 0.135053 109.979 0.351156C110.353 0.54623 110.547 0.767328 110.547 1.01442C110.417 1.80298 110.107 2.5506 109.643 3.19925C109.04 4.21364 108.002 5.7959 106.529 7.94606C104.927 10.2219 103.803 11.8476 103.131 12.7449C102.459 13.6422 101.477 14.9948 100.146 16.6464C98.8155 18.298 97.5622 19.8586 96.5157 21.1981C95.4691 22.5377 94.1771 23.9682 92.7688 25.5158V28.702C95.1203 26.101 97.1488 23.9162 98.8672 22.1995C100.232 20.8311 101.691 19.5621 103.234 18.4021C103.968 17.7483 104.859 17.2999 105.818 17.1016C106.122 17.1294 106.414 17.2302 106.67 17.3954C106.926 17.5606 107.139 17.7855 107.291 18.051C107.669 18.4858 107.907 19.0251 107.976 19.5985C107.947 19.8363 107.853 20.0613 107.705 20.2488C106.413 21.7703 105.444 23.0319 104.694 24.0202C104.053 24.867 103.479 25.7627 102.976 26.6993C102.619 27.3186 102.411 28.0134 102.369 28.728C102.344 28.8927 102.357 29.0609 102.407 29.2196C102.457 29.3783 102.543 29.5232 102.658 29.6428C102.773 29.7625 102.914 29.8537 103.07 29.9093C103.226 29.9649 103.393 29.9835 103.557 29.9635C104.393 30.0502 106.253 28.9578 109.139 26.6862Z" fill="#111111"/>
<path d="M112.214 21.9525C114.516 19.7642 117.129 17.9322 119.966 16.5163C121.761 15.5389 123.735 14.9373 125.767 14.7477C125.962 14.7524 126.154 14.7963 126.331 14.8767C126.509 14.9571 126.668 15.0724 126.801 15.2158C127.116 15.52 127.37 15.882 127.55 16.2823C127.696 16.5614 127.788 16.8659 127.822 17.1796C127.833 17.3191 127.806 17.4591 127.742 17.5834C127.678 17.7077 127.58 17.8112 127.46 17.8819C127.049 18.108 126.616 18.291 126.168 18.4281C126.284 18.7142 126.452 19.0653 126.646 19.5075C126.84 19.9497 126.982 20.3138 127.085 20.5869C127.181 20.818 127.233 21.0649 127.24 21.3152C127.005 22.1972 126.562 23.0091 125.948 23.6821C125.095 24.8395 124.501 25.6849 124.152 26.2831C123.8 26.8942 123.625 27.5927 123.648 28.2988C123.648 29.5993 124.243 30.2626 125.431 30.2626C126.62 30.2626 128.584 29.1052 131.194 26.7903V28.4029C126.749 33.3535 123.575 35.8331 121.672 35.8418C121.39 35.8698 121.107 35.822 120.85 35.7031C120.594 35.5842 120.373 35.3986 120.212 35.1655C119.885 34.5513 119.733 33.8583 119.772 33.1627C119.937 31.0733 120.443 29.0256 121.271 27.1024C118.687 29.9635 116.788 31.9966 115.573 33.2018C114.795 34.1568 113.705 34.8022 112.498 35.0224C112.11 35.0224 111.632 34.6843 111.051 34.0081C110.401 33.2314 109.881 32.3528 109.513 31.4071C109.067 30.3593 108.839 29.2308 108.842 28.0908C108.826 27.3898 108.904 26.6899 109.074 26.01C109.264 25.3863 109.576 24.8071 109.991 24.3063C110.68 23.4734 111.422 22.687 112.214 21.9525ZM124.811 19.0393C121.396 20.4925 118.133 22.283 115.069 24.3844C113.131 25.8409 112.162 27.3495 112.162 28.9101C112.146 29.3914 112.248 29.8693 112.459 30.3016C112.526 30.4572 112.636 30.5901 112.776 30.6847C112.915 30.7792 113.079 30.8313 113.247 30.8348C113.608 30.7814 113.955 30.6577 114.268 30.4707C116.17 29.3282 117.876 27.8832 119.32 26.192C120.845 24.432 122.675 22.0478 124.811 19.0393Z" fill="#111111"/>
<path d="M130.729 28.728V26.9984C131.512 26.0859 132.233 25.1214 132.887 24.1112C132.422 23.9849 131.999 23.7383 131.659 23.396C131.375 23.0259 131.241 22.5611 131.285 22.0955C131.346 21.2404 131.617 20.4139 132.073 19.6896C132.604 18.7023 133.255 17.7849 134.011 16.9585C134.585 16.2635 135.304 15.7041 136.117 15.3199C136.335 15.2004 136.579 15.1378 136.827 15.1378C137.176 15.1378 137.357 15.2939 137.357 15.632C137.21 16.2916 136.933 16.915 136.543 17.4657C138.804 17.053 141.086 16.7708 143.378 16.6204C143.557 16.5909 143.74 16.5996 143.915 16.6459C144.09 16.6922 144.254 16.7751 144.395 16.8891C144.536 17.0032 144.652 17.1459 144.735 17.3079C144.818 17.47 144.867 17.6478 144.877 17.8299C145.064 18.3915 145.16 18.98 145.161 19.5725C145.138 20.0176 144.97 20.4426 144.683 20.782C144.347 21.2111 143.792 21.8484 143.003 22.6807C142.086 23.6667 141.3 24.7683 140.665 25.958C140.157 26.765 139.835 27.6758 139.722 28.624C139.722 29.4563 140.226 29.9245 141.246 29.9245C142.267 29.9245 144.179 28.8321 146.815 26.6472V28.4159C145.368 29.9505 144.166 31.16 143.223 32.0443C142.423 32.8201 141.559 33.525 140.639 34.1511C140.008 34.612 139.259 34.8826 138.481 34.9314C138.114 34.9291 137.754 34.8338 137.433 34.6542C137.113 34.4746 136.842 34.2166 136.647 33.904C136.099 33.0224 135.841 31.9894 135.91 30.9519C135.939 30.0557 136.136 29.1731 136.492 28.3509C136.941 27.2391 137.508 26.1795 138.184 25.1907C138.957 24.0099 139.794 22.8725 140.691 21.7834C140.2 21.9004 139.644 22.0044 139.037 22.1215L137.086 22.4726L135.51 22.7717C134.328 25.0594 132.703 27.0849 130.729 28.728Z" fill="#111111"/>
<path d="M158.844 27.7136L154.154 31.7061C151.931 33.6699 150.445 34.6452 149.683 34.6452C148.921 34.6452 148.288 33.8649 147.525 32.2783C146.853 30.9998 146.469 29.5877 146.401 28.1427C146.371 27.2523 146.53 26.3656 146.866 25.5417C147.312 24.5924 147.844 23.6868 148.456 22.8367C149.389 21.494 150.416 20.2205 151.531 19.0263C152.332 18.1529 153.195 17.3401 154.115 16.5943C154.56 16.1787 155.102 15.8835 155.691 15.736C155.961 15.7527 156.224 15.8275 156.462 15.9554C156.701 16.0833 156.909 16.2612 157.074 16.4773C157.485 16.8833 157.725 17.4326 157.745 18.0119C157.64 18.6051 157.391 19.1632 157.022 19.6375C156.337 20.6354 155.573 21.5749 154.735 22.4466C153.366 23.8983 151.912 25.2663 150.381 26.5432L149.89 27.9997C149.759 28.2256 149.684 28.4798 149.67 28.741C149.657 28.838 149.667 28.9366 149.698 29.0292C149.729 29.1218 149.781 29.206 149.85 29.2751C149.919 29.3443 150.003 29.3966 150.095 29.428C150.187 29.4594 150.285 29.4691 150.381 29.4563C151.647 29.0617 152.823 28.421 153.844 27.5705C155.957 26.0642 157.933 24.3712 159.748 22.5116C160.562 21.6923 161.247 20.951 161.79 20.3138C162.332 19.6765 162.823 19.0913 163.263 18.5321C163.599 18.0743 163.966 17.6399 164.361 17.2316C164.559 16.9963 164.834 16.8396 165.136 16.7894C165.343 16.759 165.555 16.7971 165.739 16.8979C165.923 16.9987 166.069 17.1569 166.157 17.3486C166.441 17.9296 166.57 18.575 166.531 19.2213C166.479 19.8609 166.261 20.4754 165.898 21.003C165.472 21.7183 164.684 22.9408 163.534 24.6574C162.384 26.3741 161.221 28.1687 160.071 30.0024C158.921 31.8362 157.758 33.904 156.557 36.2449L158.185 34.6583C159.206 33.6439 160.291 32.5905 161.428 31.4981C162.565 30.4056 163.508 29.5343 164.244 28.8971C164.981 28.2598 165.898 27.4665 166.997 26.5822V28.3508C164.632 30.9518 162.487 33.3317 160.536 35.6336C158.585 37.9355 157.138 39.7562 156.092 41.1348C155.045 42.5133 154.438 43.3196 154.257 43.5406C153.792 44.1649 153.366 44.7371 152.965 45.2833C152.564 45.8295 152.267 46.2327 152.022 46.5838C151.776 46.9349 151.557 47.026 151.402 47.026C151.027 47.026 150.704 46.6619 150.407 45.9206C150.147 45.3067 150.003 44.6497 149.98 43.9828C149.976 43.5332 150.073 43.0885 150.265 42.6823C152.827 37.5259 155.692 32.5275 158.844 27.7136Z" fill="#111111"/>
<path d="M169.981 21.9525C172.284 19.7642 174.896 17.9322 177.733 16.5163C179.529 15.5389 181.502 14.9373 183.535 14.7477C183.729 14.7524 183.921 14.7963 184.099 14.8767C184.276 14.9571 184.436 15.0724 184.568 15.2158C184.883 15.52 185.138 15.882 185.318 16.2823C185.464 16.5614 185.556 16.8659 185.589 17.1796C185.601 17.3191 185.573 17.4591 185.509 17.5834C185.445 17.7077 185.347 17.8112 185.227 17.8819C184.816 18.1079 184.383 18.291 183.935 18.4281L184.413 19.5075C184.607 19.9497 184.749 20.3138 184.853 20.5869C184.948 20.818 185.001 21.0649 185.008 21.3152C184.778 22.1995 184.334 23.0128 183.716 23.6821C182.863 24.8395 182.269 25.6849 181.92 26.2831C181.567 26.8942 181.393 27.5927 181.416 28.2988C181.416 29.5993 182.01 30.2626 183.199 30.2626C184.387 30.2626 186.351 29.1052 188.961 26.7903V28.4029C184.517 33.3535 181.343 35.8331 179.439 35.8418C179.159 35.8471 178.882 35.7778 178.637 35.6407C178.392 35.5037 178.187 35.3038 178.044 35.0615C177.721 34.446 177.574 33.753 177.617 33.0587C177.775 30.9682 178.282 28.9195 179.116 26.9984C176.532 29.8594 174.628 31.8926 173.405 33.0977C172.627 34.0527 171.537 34.6982 170.33 34.9184C169.942 34.9184 169.464 34.5802 168.883 33.904C168.233 33.1273 167.713 32.2487 167.345 31.303C166.899 30.2552 166.671 29.1267 166.674 27.9867C166.658 27.2858 166.736 26.5859 166.906 25.9059C167.096 25.2823 167.408 24.7031 167.824 24.2023C168.495 23.4071 169.215 22.6556 169.981 21.9525ZM182.579 19.0393C179.164 20.4925 175.9 22.283 172.837 24.3844C170.899 25.8409 169.929 27.3495 169.929 28.9101C169.914 29.3914 170.016 29.8693 170.227 30.3016C170.294 30.4572 170.403 30.5901 170.543 30.6847C170.683 30.7792 170.847 30.8313 171.015 30.8348C171.375 30.7814 171.722 30.6577 172.036 30.4707C173.938 29.3281 175.644 27.8832 177.087 26.192C178.586 24.432 180.417 22.0478 182.579 19.0393Z" fill="#111111"/>
</g>
<defs>
<clipPath id="clip0_62_643">
<rect width="189" height="47" fill="white"/>
</clipPath>
</defs>
</svg>
