<svg width="299" height="518" viewBox="0 0 299 518" fill="none" xmlns="http://www.w3.org/2000/svg">
<g clip-path="url(#clip0_122_98)">
<path d="M156.419 314.136C156.381 313.935 156.277 313.752 156.124 313.616C155.597 311.207 154.833 309.122 154.169 308.249C154.061 308.082 153.921 307.937 153.757 307.824C153.592 307.711 153.407 307.632 153.212 307.591C153.017 307.55 152.815 307.548 152.62 307.586C152.424 307.623 152.237 307.699 152.071 307.809C152.071 307.809 152.035 307.73 152.013 307.701C151.893 307.508 151.731 307.344 151.539 307.221C151.348 307.099 151.132 307.02 150.906 306.991C150.68 306.962 150.451 306.983 150.235 307.054C150.018 307.124 149.82 307.242 149.655 307.398C148.862 308.15 148.329 309.136 148.134 310.211C148.063 309.124 147.697 308.076 147.074 307.182C146.932 306.933 146.719 306.733 146.463 306.605C146.206 306.478 145.918 306.43 145.634 306.467C145.35 306.504 145.084 306.625 144.869 306.814C144.654 307.003 144.5 307.251 144.427 307.528C144.398 307.618 144.374 307.71 144.355 307.802C144.269 307.69 144.175 307.584 144.074 307.485C143.862 307.292 143.599 307.167 143.317 307.125C143.034 307.082 142.745 307.125 142.487 307.247C142.352 307.143 142.189 307.083 142.018 307.074C141.864 307.073 141.709 307.088 141.557 307.117C141.463 307.038 141.346 306.992 141.224 306.985C141.102 306.979 140.981 307.012 140.879 307.081C136.942 309.75 136.992 317.605 138.716 321.508C139.329 322.914 141.095 324.076 142.256 322.95C142.487 323.259 142.767 323.527 143.086 323.744C143.422 324.029 143.857 324.169 144.296 324.134C144.735 324.099 145.143 323.891 145.429 323.556C145.698 324.095 146.109 324.552 146.617 324.875C147.125 325.199 147.712 325.379 148.314 325.396C148.817 325.36 149.301 325.187 149.712 324.894C150.123 324.601 150.445 324.201 150.643 323.737C151.236 324.393 152.05 324.809 152.929 324.905C156.708 325.302 157.205 320.491 156.535 315.874C156.592 315.292 156.553 314.705 156.419 314.136Z" fill="#2F333B"/>
<path d="M223.087 156.552C173.012 107.256 99.1834 111.108 58.1731 165.1C17.1627 219.092 24.511 302.868 74.5786 352.15C79.7132 357.305 85.1377 362.163 90.8256 366.699C96.767 371.37 103.159 375.437 109.907 378.839C121.769 384.61 138.095 391.225 136.321 409.633" stroke="#2F333B" stroke-width="8" stroke-miterlimit="10"/>
<path d="M244.541 165.1C285.551 219.121 278.203 302.875 228.135 352.157C223.002 357.314 217.577 362.172 211.888 366.707C205.947 371.376 199.555 375.441 192.807 378.84C180.945 384.61 164.799 391.225 166.573 409.633" stroke="#2F333B" stroke-width="8" stroke-miterlimit="10"/>
<path d="M89.7224 267.407C106.669 267.407 120.406 249.267 120.406 226.89C120.406 204.512 106.669 186.372 89.7224 186.372C72.7762 186.372 59.0386 204.512 59.0386 226.89C59.0386 249.267 72.7762 267.407 89.7224 267.407Z" stroke="#2F333B" stroke-width="8" stroke-miterlimit="10"/>
<path d="M207.244 267.407C224.19 267.407 237.928 249.267 237.928 226.89C237.928 204.512 224.19 186.372 207.244 186.372C190.298 186.372 176.56 204.512 176.56 226.89C176.56 249.267 190.298 267.407 207.244 267.407Z" stroke="#2F333B" stroke-width="8" stroke-miterlimit="10"/>
<path d="M125.634 281.3C133.365 287.835 142.66 293.801 152.842 291.399C159.866 289.747 165.671 285.318 171.556 281.3C169.454 285.636 166.388 289.434 162.592 292.402C156.614 297.256 148.169 299.153 140.85 296.398C137.399 295.086 134.262 293.064 131.641 290.463C129.02 287.863 126.974 284.741 125.634 281.3Z" fill="#2F333B"/>
<path d="M270.876 224.062C270.876 224.062 288.544 213.35 292.005 226.082C296.332 241.951 292.503 254.531 288.003 263.981C286.424 267.299 278.816 271.136 276.299 273.805C270.941 279.49 266.239 289.293 262.497 297.501" stroke="#2F333B" stroke-width="8" stroke-miterlimit="10"/>
<path d="M65.6367 342.455C65.6367 342.455 50.3633 378.652 69.711 397.277C76.3021 403.625 93.3567 410.297 104.981 413.471C121.185 417.893 155.244 419.552 155.244 419.552C155.244 419.552 195.749 418.109 213.424 409.453C219.357 406.47 224.997 402.937 230.269 398.9C238.281 392.862 241.086 382.309 237.849 372.831C237.805 372.694 237.762 372.564 237.733 372.434C236.623 368.387 235.995 343.775 235.995 343.775" stroke="#2F333B" stroke-width="8" stroke-miterlimit="10"/>
<path d="M86.4267 363.114C86.8017 364.557 81.3211 386.76 95.5633 395.574C109.806 404.389 129.456 403.271 146.641 418.989" stroke="#2F333B" stroke-width="8" stroke-miterlimit="10"/>
<path d="M211.888 366.707C211.888 366.707 209.833 386.76 196.023 393.944C182.214 401.129 162.852 411.682 157.147 419.545" stroke="#2F333B" stroke-width="8" stroke-miterlimit="10"/>
<path d="M69.0694 395.596C69.0694 395.596 39.2437 410.088 33.1718 420.526C27.0999 430.963 8.86988 496.158 11.0765 517.704" stroke="#2F333B" stroke-width="8" stroke-miterlimit="10"/>
<path d="M234.575 395.596C234.575 395.596 264.4 410.088 270.479 420.526C276.559 430.963 294.781 496.158 292.575 517.704" stroke="#2F333B" stroke-width="8" stroke-miterlimit="10"/>
<path d="M34.5059 417.929C34.5059 417.929 58.0722 449.971 58.0722 510.383" stroke="#2F333B" stroke-width="8" stroke-miterlimit="10"/>
<path d="M268.857 417.929C268.857 417.929 245.291 449.971 245.291 510.383" stroke="#2F333B" stroke-width="8" stroke-miterlimit="10"/>
<path d="M31.6431 233.172C48.0343 155.758 85.778 135.316 94.7343 131.291C100.056 128.903 105.688 127.395 111.19 125.52C114.363 124.431 117.81 123.089 121.221 123.269C127.834 123.637 128.728 131.009 133.567 134.147C140.057 138.367 149.432 136.708 156.037 133.635C164.691 129.603 171.585 124.979 180.44 132.596C184.901 136.546 189.712 140.083 194.812 143.164C199.896 146.172 207.489 145.768 203.956 154.958C202.514 158.738 202.405 161.486 203.386 165.41C207.468 181.676 230.847 174.968 242.392 168.569C241.952 171.866 240.712 175.235 241.216 178.668C241.938 183.811 243.156 189.2 246.646 193.29C250.252 197.502 254.478 198.627 258.336 198.187C266.333 199.782 270.984 239.167 271.071 240.321C271.071 240.321 303.788 186.22 289.82 150.305C282.09 130.411 302.591 93.2833 298.416 89.1067C289.438 80.1261 267.126 97.6474 266.254 78.4814C265.129 53.5159 281.253 27.9806 258.754 8.72084C243.899 -3.98913 222.655 -1.01001 206.22 6.27551C186.159 15.1624 177.375 35.129 160.198 47.4351C152.987 52.5854 145.429 52.7657 139.595 44.9536C136.365 40.6256 135.081 34.0398 132.319 29.2934C128.519 22.7869 120.587 19.815 113.375 21.5246C102.941 23.9844 93.0757 30.1229 86.6361 38.8367C83.2396 43.41 77.9826 50.3781 75.0981 57.303C73.1327 55.5098 70.8104 54.1528 68.2835 53.3212C57.7118 49.4692 46.2675 57.1803 38.9265 63.9537C21.1219 80.3858 19.5426 107.573 25.0593 129.884C20.4945 127.092 16.5139 124.734 10.2546 126.371C3.49041 128.131 0.158812 137.364 0.0145872 143.366C-0.367609 156.703 9.38921 183.119 11.8338 196.096C15.9298 217.93 31.6431 233.172 31.6431 233.172Z" fill="#2F333B"/>
<path d="M278.203 236.678C278.686 235.322 280.251 234.63 281.642 234.514C285.544 234.19 286.69 238.597 285.666 241.641C285.236 243.002 284.569 244.276 283.698 245.406C281.231 248.494 279.501 251.177 279.515 255.007C279.515 256.241 279.573 257.503 279.674 258.809C278.322 256.469 277.725 253.768 277.965 251.076C278.246 247.08 281.657 244.252 282.941 240.812C283.316 239.455 283.662 237.861 282.753 236.786C282.101 236.292 281.309 236.018 280.491 236.004C279.673 235.99 278.872 236.236 278.203 236.707V236.678Z" fill="#2F333B"/>
<path d="M33.0492 226.89C33.0492 226.89 22.5136 214.115 11.6967 226.89C3.76434 236.267 11.1991 255.346 15.699 264.796C17.2832 268.105 19.3758 271.145 21.9006 273.805C27.2514 279.49 36.727 290.995 40.4768 299.204" stroke="#2F333B" stroke-width="8" stroke-miterlimit="10"/>
<path d="M21.6409 231.564C16.8238 233.007 15.4392 236.382 17.1916 240.941C20.0761 247.707 23.5519 254.906 23.112 262.517C21.1578 256.84 18.7276 251.523 16.2902 246.084C15.0787 243.452 13.6292 240.256 14.2278 236.779C14.6893 233.324 18.4031 231.095 21.6409 231.578V231.564Z" fill="#2F333B"/>
<path d="M90.1694 238.121C94.9486 238.121 98.8229 233.093 98.8229 226.89C98.8229 220.687 94.9486 215.658 90.1694 215.658C85.3902 215.658 81.5159 220.687 81.5159 226.89C81.5159 233.093 85.3902 238.121 90.1694 238.121Z" fill="#2F333B"/>
<path d="M209.105 238.121C213.884 238.121 217.758 233.093 217.758 226.89C217.758 220.687 213.884 215.658 209.105 215.658C204.325 215.658 200.451 220.687 200.451 226.89C200.451 233.093 204.325 238.121 209.105 238.121Z" fill="#2F333B"/>
<path d="M113.815 290.432C107.325 281.055 106.82 268.374 120.493 266.246C125.23 265.387 129.99 264.637 134.648 265.842C139.307 267.047 143.583 268.792 147.275 272.038L147.073 272.875C142.516 274.166 138.124 274.39 133.581 274.411C128.533 274.556 123.485 272.471 118.51 273.373C112.315 274.289 112.741 282.029 113.765 286.862C113.97 287.933 114.242 288.991 114.579 290.028L113.815 290.432Z" fill="#2F333B"/>
<path d="M182.603 290.028C184.002 285.246 185.603 277.153 180.779 274.007C177.483 272.565 173.459 273.2 169.89 273.834C165.651 274.51 161.341 274.61 157.075 274.13C154.733 273.931 152.416 273.51 150.153 272.875L149.951 272.038C155.208 267.544 162.642 264.825 169.515 265.25C177.606 266.094 187.038 266.881 187.795 277.088C187.947 282.137 186.029 286.465 183.375 290.432L182.61 290.028H182.603Z" fill="#2F333B"/>
</g>
<defs>
<clipPath id="clip0_122_98">
<rect width="299" height="518" fill="white"/>
</clipPath>
</defs>
</svg>
